<svg width="595" height="176" viewBox="0 0 595 176" fill="none" xmlns="http://www.w3.org/2000/svg">
<rect width="176" height="176" rx="88" fill="url(#paint0_linear_409_14)"/>
<circle cx="62.0985" cy="95.3871" r="22.7098" fill="white"/>
<ellipse cx="87.7928" cy="87.4809" rx="23.2342" ry="29.6478" fill="white"/>
<ellipse cx="105.179" cy="92.4023" rx="21.2577" ry="22.0645" fill="white"/>
<ellipse cx="123.855" cy="98.7351" rx="12.8272" ry="13.3113" fill="white"/>
<path d="M255.829 140C246.324 140 237.78 137.801 230.195 133.401C222.61 128.907 216.657 122.69 212.337 114.753C208.112 106.816 206 97.8739 206 87.9283C206 77.9826 208.112 69.0889 212.337 61.2469C216.657 53.3095 222.562 47.1413 230.051 42.7421C237.636 38.2475 246.18 36 255.685 36C265.958 36 275.08 38.5821 283.048 43.7462C291.113 48.8146 296.874 55.7001 300.33 64.4028L285.641 66.6979C282.952 61.3426 278.968 57.1826 273.687 54.2179C268.503 51.1578 262.646 49.6276 256.117 49.6276C249.397 49.6276 243.396 51.2532 238.115 54.5048C232.931 57.7564 228.851 62.2987 225.874 68.1324C222.994 73.8703 221.554 80.469 221.554 87.9283C221.554 95.4833 222.994 102.177 225.874 108.011C228.851 113.749 232.979 118.244 238.259 121.495C243.54 124.747 249.589 126.372 256.405 126.372C263.126 126.372 269.079 124.842 274.263 121.782C279.544 118.626 283.576 114.227 286.361 108.585L301.05 110.88C297.402 119.774 291.497 126.85 283.336 132.11C275.175 137.37 266.007 140 255.829 140ZM329.351 138.566H315.238V37.4345H329.351V138.566ZM384.532 140C376.95 140 370.181 138.374 364.226 135.123C358.275 131.871 353.619 127.329 350.257 121.495C346.897 115.661 345.216 109.015 345.216 101.556C345.216 94.0966 346.897 87.4502 350.257 81.6166C353.619 75.7829 358.275 71.2406 364.226 67.989C370.181 64.642 376.95 62.9683 384.532 62.9683C392.118 62.9683 398.887 64.642 404.838 67.989C410.794 71.2406 415.449 75.7829 418.808 81.6166C422.171 87.4502 423.848 94.0966 423.848 101.556C423.848 109.015 422.171 115.661 418.808 121.495C415.449 127.329 410.794 131.871 404.838 135.123C398.887 138.374 392.118 140 384.532 140ZM384.532 127.09C391.83 127.09 397.735 124.747 402.246 120.061C406.855 115.375 409.159 109.206 409.159 101.556C409.159 93.9054 406.855 87.7371 402.246 83.051C397.735 78.2695 391.83 75.8786 384.532 75.8786C377.238 75.8786 371.333 78.2695 366.818 83.051C362.307 87.7371 360.05 93.9054 360.05 101.556C360.05 109.111 362.307 115.279 366.818 120.061C371.333 124.747 377.238 127.09 384.532 127.09ZM466.059 140C460.778 140 456.025 138.709 451.802 136.127C447.579 133.449 444.266 129.815 441.865 125.225C439.463 120.539 438.264 115.279 438.264 109.446V64.4028H452.378V108.298C452.378 113.94 453.962 118.53 457.13 122.069C460.299 125.607 464.378 127.377 469.372 127.377C474.556 127.377 478.877 125.559 482.333 121.926C485.79 118.292 487.518 113.749 487.518 108.298V64.4028H501.631V138.566H491.55L488.238 127.377C485.836 131.393 482.668 134.501 478.733 136.701C474.891 138.9 470.668 140 466.059 140ZM553.092 140C546.085 140 539.795 138.374 534.225 135.123C528.753 131.776 524.432 127.185 521.264 121.352C518.193 115.518 516.656 108.919 516.656 101.556C516.656 94.0966 518.193 87.4502 521.264 81.6166C524.432 75.7829 528.753 71.2406 534.225 67.989C539.795 64.642 546.085 62.9683 553.092 62.9683C559.237 62.9683 564.663 64.2593 569.365 66.8414C574.071 69.3277 577.913 72.4359 580.887 76.1655V37.4345H595V138.566H584.919L581.463 126.229C578.391 130.15 574.456 133.449 569.653 136.127C564.951 138.709 559.428 140 553.092 140ZM556.116 127.377C563.414 127.377 569.365 124.986 573.974 120.204C578.582 115.423 580.887 109.206 580.887 101.556C580.887 93.9054 578.582 87.6891 573.974 82.9076C569.365 78.1261 563.414 75.7352 556.116 75.7352C548.821 75.7352 542.866 78.1261 538.258 82.9076C533.747 87.6891 531.489 93.9054 531.489 101.556C531.489 109.206 533.747 115.423 538.258 120.204C542.866 124.986 548.821 127.377 556.116 127.377Z" fill="white"/>
<defs>
<linearGradient id="paint0_linear_409_14" x1="-6.51404" y1="-22.0651" x2="246.299" y2="207.824" gradientUnits="userSpaceOnUse">
<stop stop-color="#6877FF"/>
<stop offset="0.9999" stop-color="#D429FF"/>
</linearGradient>
</defs>
</svg>
