<svg width="507" height="176" viewBox="0 0 507 176" fill="none" xmlns="http://www.w3.org/2000/svg">
<rect width="176" height="176" rx="88" fill="url(#paint0_linear_409_14)"/>
<circle cx="62.0985" cy="95.3871" r="22.7098" fill="white"/>
<ellipse cx="87.7928" cy="87.4809" rx="23.2342" ry="29.6478" fill="white"/>
<ellipse cx="105.179" cy="92.4023" rx="21.2577" ry="22.0645" fill="white"/>
<ellipse cx="123.855" cy="98.7351" rx="12.8272" ry="13.3113" fill="white"/>
<path d="M246.301 128C238.995 128 232.427 126.308 226.597 122.924C220.767 119.467 216.191 114.685 212.871 108.579C209.624 102.474 208 95.5953 208 87.9448C208 80.2943 209.624 73.453 212.871 67.4207C216.191 61.315 220.73 56.5702 226.486 53.1862C232.316 49.7288 238.884 48 246.19 48C254.086 48 261.097 49.9862 267.222 53.9586C273.421 57.8574 277.849 63.1539 280.506 69.8483L269.215 71.6138C267.148 67.4943 264.086 64.2943 260.027 62.0138C256.042 59.6599 251.54 58.4828 246.522 58.4828C241.356 58.4828 236.744 59.7332 232.685 62.2345C228.7 64.7357 225.564 68.2298 223.276 72.7172C221.062 77.131 219.955 82.2069 219.955 87.9448C219.955 93.7564 221.062 98.9057 223.276 103.393C225.564 107.807 228.737 111.264 232.796 113.766C236.855 116.267 241.504 117.517 246.743 117.517C251.909 117.517 256.485 116.34 260.47 113.986C264.529 111.559 267.628 108.175 269.768 103.834L281.059 105.6C278.255 112.441 273.716 117.885 267.444 121.931C261.171 125.977 254.123 128 246.301 128ZM302.812 126.897H291.964V49.1034H302.812V126.897ZM345.227 128C339.398 128 334.196 126.75 329.619 124.248C325.044 121.747 321.466 118.253 318.881 113.766C316.299 109.278 315.007 104.166 315.007 98.4276C315.007 92.6897 316.299 87.5771 318.881 83.0897C321.466 78.6022 325.044 75.1081 329.619 72.6069C334.196 70.0323 339.398 68.7448 345.227 68.7448C351.058 68.7448 356.26 70.0323 360.835 72.6069C365.412 75.1081 368.99 78.6022 371.572 83.0897C374.157 87.5771 375.447 92.6897 375.447 98.4276C375.447 104.166 374.157 109.278 371.572 113.766C368.99 118.253 365.412 121.747 360.835 124.248C356.26 126.75 351.058 128 345.227 128ZM345.227 118.069C350.836 118.069 355.375 116.267 358.842 112.662C362.384 109.057 364.156 104.313 364.156 98.4276C364.156 92.5426 362.384 87.7978 358.842 84.1931C355.375 80.515 350.836 78.6759 345.227 78.6759C339.62 78.6759 335.081 80.515 331.611 84.1931C328.144 87.7978 326.408 92.5426 326.408 98.4276C326.408 104.239 328.144 108.984 331.611 112.662C335.081 116.267 339.62 118.069 345.227 118.069ZM407.891 128C403.832 128 400.179 127.007 396.933 125.021C393.686 122.961 391.14 120.166 389.295 116.634C387.449 113.03 386.527 108.984 386.527 104.497V69.8483H397.375V103.614C397.375 107.954 398.593 111.485 401.028 114.207C403.464 116.929 406.599 118.29 410.437 118.29C414.422 118.29 417.743 116.892 420.4 114.097C423.057 111.301 424.385 107.807 424.385 103.614V69.8483H435.233V126.897H427.485L424.939 118.29C423.093 121.379 420.657 123.77 417.633 125.462C414.68 127.154 411.434 128 407.891 128ZM474.788 128C469.402 128 464.568 126.75 460.286 124.248C456.08 121.674 452.759 118.143 450.324 113.655C447.963 109.168 446.782 104.092 446.782 98.4276C446.782 92.6897 447.963 87.5771 450.324 83.0897C452.759 78.6022 456.08 75.1081 460.286 72.6069C464.568 70.0323 469.402 68.7448 474.788 68.7448C479.512 68.7448 483.682 69.7379 487.296 71.7241C490.913 73.6367 493.866 76.0276 496.152 78.8966V49.1034H507V126.897H499.251L496.595 117.407C494.234 120.423 491.209 122.961 487.518 125.021C483.903 127.007 479.658 128 474.788 128ZM477.112 118.29C482.722 118.29 487.296 116.45 490.838 112.772C494.381 109.094 496.152 104.313 496.152 98.4276C496.152 92.5426 494.381 87.7608 490.838 84.0828C487.296 80.4047 482.722 78.5655 477.112 78.5655C471.505 78.5655 466.928 80.4047 463.386 84.0828C459.918 87.7608 458.183 92.5426 458.183 98.4276C458.183 104.313 459.918 109.094 463.386 112.772C466.928 116.45 471.505 118.29 477.112 118.29Z" fill="white"/>
<defs>
<linearGradient id="paint0_linear_409_14" x1="-6.51404" y1="-22.0651" x2="246.299" y2="207.824" gradientUnits="userSpaceOnUse">
<stop stop-color="#6877FF"/>
<stop offset="0.9999" stop-color="#D429FF"/>
</linearGradient>
</defs>
</svg>
